<svg id="Layer_1" data-name="Layer 1" xmlns="http://www.w3.org/2000/svg" viewBox="0 0 64 64"><title>confirm security</title><path d="M53.37,6H10.63A6.65,6.65,0,0,0,4,12.63V51.36A6.66,6.66,0,0,0,10.64,58H53.36A6.66,6.66,0,0,0,60,51.36V12.63A6.65,6.65,0,0,0,53.37,6ZM44,39.35a6.49,6.49,0,0,1-2.89,5.4L34.3,49.29a4.15,4.15,0,0,1-4.6,0l-6.81-4.54A6.49,6.49,0,0,1,20,39.35V27.09a1.22,1.22,0,0,1,1.08-1.22,23.51,23.51,0,0,0,6-1.62,25.63,25.63,0,0,0,3.89-2,1.94,1.94,0,0,1,2.06,0,25.63,25.63,0,0,0,3.89,2,23.51,23.51,0,0,0,6,1.62A1.22,1.22,0,0,1,44,27.09ZM56,14.79A3.21,3.21,0,0,1,52.79,18H11.21A3.21,3.21,0,0,1,8,14.79V13.21A3.21,3.21,0,0,1,11.21,10H52.79A3.21,3.21,0,0,1,56,13.21Z"/><circle cx="14" cy="14" r="2"/><circle cx="22" cy="14" r="2"/><circle cx="30" cy="14" r="2"/><path d="M34.59,31.82l-3.52,3.52-.7-.52A2,2,0,1,0,28,38l2.08,1.56a2,2,0,0,0,2.61-.19l4.75-4.75a2,2,0,0,0-2.83-2.83Z"/></svg>